<svg width="30" height="34" viewBox="0 0 30 34" fill="none" xmlns="http://www.w3.org/2000/svg">
<path d="M25 3.66634H23.3333V1.99967C23.3333 1.55765 23.1577 1.13372 22.8452 0.821163C22.5326 0.508602 22.1087 0.333008 21.6667 0.333008C21.2246 0.333008 20.8007 0.508602 20.4882 0.821163C20.1756 1.13372 20 1.55765 20 1.99967V3.66634H10V1.99967C10 1.55765 9.8244 1.13372 9.51184 0.821163C9.19928 0.508602 8.77536 0.333008 8.33333 0.333008C7.89131 0.333008 7.46738 0.508602 7.15482 0.821163C6.84226 1.13372 6.66667 1.55765 6.66667 1.99967V3.66634H5C3.67392 3.66634 2.40215 4.19313 1.46447 5.13081C0.526784 6.06849 0 7.34026 0 8.66634V28.6663C0 29.9924 0.526784 31.2642 1.46447 32.2019C2.40215 33.1396 3.67392 33.6663 5 33.6663H25C26.3261 33.6663 27.5979 33.1396 28.5355 32.2019C29.4732 31.2642 30 29.9924 30 28.6663V8.66634C30 7.34026 29.4732 6.06849 28.5355 5.13081C27.5979 4.19313 26.3261 3.66634 25 3.66634ZM8.33333 25.333C8.0037 25.333 7.68146 25.2353 7.40738 25.0521C7.1333 24.869 6.91968 24.6087 6.79353 24.3041C6.66739 23.9996 6.63438 23.6645 6.69869 23.3412C6.763 23.0179 6.92173 22.7209 7.15482 22.4878C7.38791 22.2547 7.68488 22.096 8.00818 22.0317C8.33148 21.9674 8.6666 22.0004 8.97114 22.1265C9.27568 22.2527 9.53598 22.4663 9.71912 22.7404C9.90225 23.0145 10 23.3367 10 23.6663C10 24.1084 9.8244 24.5323 9.51184 24.8449C9.19928 25.1574 8.77536 25.333 8.33333 25.333ZM21.6667 25.333H15C14.558 25.333 14.134 25.1574 13.8215 24.8449C13.5089 24.5323 13.3333 24.1084 13.3333 23.6663C13.3333 23.2243 13.5089 22.8004 13.8215 22.4878C14.134 22.1753 14.558 21.9997 15 21.9997H21.6667C22.1087 21.9997 22.5326 22.1753 22.8452 22.4878C23.1577 22.8004 23.3333 23.2243 23.3333 23.6663C23.3333 24.1084 23.1577 24.5323 22.8452 24.8449C22.5326 25.1574 22.1087 25.333 21.6667 25.333ZM26.6667 15.333H3.33333V8.66634C3.33333 8.22431 3.50893 7.80039 3.82149 7.48783C4.13405 7.17527 4.55797 6.99967 5 6.99967H6.66667V8.66634C6.66667 9.10837 6.84226 9.53229 7.15482 9.84485C7.46738 10.1574 7.89131 10.333 8.33333 10.333C8.77536 10.333 9.19928 10.1574 9.51184 9.84485C9.8244 9.53229 10 9.10837 10 8.66634V6.99967H20V8.66634C20 9.10837 20.1756 9.53229 20.4882 9.84485C20.8007 10.1574 21.2246 10.333 21.6667 10.333C22.1087 10.333 22.5326 10.1574 22.8452 9.84485C23.1577 9.53229 23.3333 9.10837 23.3333 8.66634V6.99967H25C25.442 6.99967 25.866 7.17527 26.1785 7.48783C26.4911 7.80039 26.6667 8.22431 26.6667 8.66634V15.333Z" fill="#181A18"/>
</svg>
